<?xml version="1.0" encoding="utf-8"?>
<svg xmlns="http://www.w3.org/2000/svg" width="124" height="53" viewBox="0 0 124 53" fill="none">
    <path d="M48.08 11.7305C41.1658 11.7305 35.5712 17.3366 35.5625 24.2479C35.5712 31.1563 41.1658 36.7567 48.08 36.7596C55.0029 36.7596 60.5974 31.1621 60.6032 24.2479C60.5974 17.3337 55 11.7305 48.08 11.7305ZM52.584 28.7404C51.421 29.8947 49.8462 30.5995 48.08 30.5995C46.3137 30.5995 44.7563 29.8947 43.5846 28.7375C42.4361 27.5803 41.7255 26.0084 41.7255 24.2479C41.7255 22.4875 42.4332 20.9097 43.5846 19.7526C44.7476 18.5925 46.3166 17.8877 48.08 17.8877C49.8433 17.8877 51.4152 18.5925 52.5811 19.7526C53.7441 20.9068 54.4344 22.4759 54.4431 24.2479C54.4344 26.0113 53.7441 27.5832 52.5869 28.7404H52.584Z" fill="#ffffff"/>
    <path d="M75.3963 11.7307C73.0732 11.7278 70.9009 12.3659 69.0331 13.4738C69.0331 9.54974 69.036 6.01434 69.036 4.3554C69.036 -0.473511 62.8672 0.0137388 62.8672 0.0137388V24.2511L62.8817 24.2569C62.8875 31.1682 68.4908 36.7599 75.3992 36.7657C82.3133 36.757 87.9108 31.1682 87.9108 24.254C87.9108 17.3398 82.3133 11.7365 75.3963 11.7365V11.7307ZM79.8916 28.7407C78.7315 29.895 77.1596 30.6055 75.3963 30.5997C73.63 30.5997 72.0639 29.895 70.9067 28.7407C69.7495 27.5835 69.0447 26.0086 69.0418 24.2482C69.0476 22.479 69.7466 20.91 70.9125 19.7528C72.0668 18.5927 73.63 17.888 75.3963 17.888C77.1625 17.888 78.7315 18.5927 79.8887 19.7528C81.0488 20.91 81.7507 22.4761 81.7507 24.2424C81.7507 26.0086 81.0459 27.5777 79.8916 28.7378V28.7407Z" fill="#ffffff"/>
    <path d="M102.689 11.7246C95.7694 11.7246 90.1719 17.3308 90.1719 24.2421C90.1719 31.1534 95.7694 36.7566 102.689 36.7537C105.001 36.7624 107.182 36.1215 109.052 35.0194L109.047 36.4956H115.21V23.9608H115.192C115.041 17.1742 109.499 11.7246 102.689 11.7246ZM107.176 28.7375C106.016 29.8889 104.447 30.5936 102.689 30.5994C100.914 30.5936 99.3483 29.8889 98.194 28.7375C97.031 27.5716 96.332 26.0025 96.3233 24.2421C96.332 22.4729 97.031 20.901 98.1911 19.7467C99.3541 18.5895 100.914 17.8876 102.689 17.8876C104.464 17.8876 106.013 18.5866 107.176 19.7467C108.33 20.901 109.041 22.4758 109.044 24.2421C109.044 26.0025 108.33 27.5716 107.176 28.7375Z" fill="#ffffff"/>
    <path d="M24.6927 24.399C24.6927 21.8294 23.9096 19.4425 22.5697 17.4762C25.1248 15.8955 24.6318 12.0556 24.6318 12.0556H12.677C12.5697 12.0556 12.4537 12.0498 12.3463 12.0498C5.52207 12.0527 0 17.5777 0 24.4019C0 31.2204 5.52207 36.7425 12.3521 36.7541C12.8858 36.7483 13.9502 36.7425 13.9502 36.7425C15.2466 36.7425 16.3864 37.2587 17.2391 38.1027C18.0888 38.9583 18.608 40.0952 18.608 41.3858C18.608 42.6764 18.0917 43.8249 17.2391 44.6776C16.3864 45.5244 15.2495 46.0465 13.9502 46.0407C12.6596 46.0407 11.5111 45.5215 10.67 44.6776C9.81733 43.8278 9.31269 42.688 9.30689 41.3858C9.30689 40.6955 9.449 40.0633 9.71002 39.4832L4.17345 36.9832C3.5673 38.326 3.22797 39.8284 3.22797 41.3858C3.22797 47.3284 8.03368 52.1196 13.9502 52.1196C19.8667 52.1196 24.684 47.3255 24.684 41.3858C24.684 38.1317 23.2339 35.2228 20.9427 33.2564C23.2484 31.0174 24.6898 27.8793 24.6898 24.3962L24.6927 24.399ZM7.90897 28.8335C6.77788 27.6908 6.07312 26.145 6.07602 24.4019C6.07312 22.656 6.77498 21.1131 7.90897 19.9646C9.02557 18.8625 10.5163 18.1809 12.1897 18.1345H12.1839C12.1839 18.1345 12.3405 18.1345 12.6741 18.1403C14.2808 18.2215 15.7048 18.9002 16.7779 19.9646C17.9235 21.1102 18.6138 22.656 18.6196 24.4019C18.6138 26.145 17.9235 27.6908 16.7779 28.8335C15.6352 29.9762 14.0807 30.6723 12.355 30.6752C10.6091 30.6694 9.06037 29.9762 7.90897 28.8335Z" fill="#ffffff"/>
    <path d="M117.828 0.173344V36.7251H124C124 36.7251 124 9.33232 124.006 4.51211C124.006 -0.319701 117.828 0.173344 117.828 0.173344Z" fill="#ffffff"/>
    <path d="M27.0625 0.172932V36.7247H33.2342V4.5117C33.2342 -0.314312 27.0625 0.172932 27.0625 0.172932Z" fill="#ffffff"/>
</svg>